<?xml version="1.0" encoding="iso-8859-1"?>
<!-- Uploaded to: SVG Repo, www.svgrepo.com, Generator: SVG Repo Mixer Tools -->
<!DOCTYPE svg PUBLIC "-//W3C//DTD SVG 1.1//EN" "http://www.w3.org/Graphics/SVG/1.1/DTD/svg11.dtd">
<svg fill="#000000" version="1.1" id="Capa_1" xmlns="http://www.w3.org/2000/svg" xmlns:xlink="http://www.w3.org/1999/xlink" 
	 width="800px" height="800px" viewBox="0 0 190.06 190.06"
	 xml:space="preserve">
<g>
	<g>
		<path d="M74.855,43.025c-10.73-14.002-31.93-16.26-47.206-8.84C11.909,41.831,7.812,54.189,5.331,70.255
			c-0.938,6.078-2.285,12.806-1.322,18.95c0.025,0.162,0.148,0.505,0.327,0.88c0.007,0.106,0.011,0.211,0.019,0.317
			c-0.033,0.006-0.065,0.013-0.097,0.02c-1.345,0.311-1.339,2.391,0,2.705c5.374,1.262,11.005,1.763,16.698,1.952
			c5.135,8,17.062,12.442,26.559,12.487c7.552,0.036,15.428-2.715,20.226-8.733c0.595-0.747,1.134-1.584,1.619-2.48
			c4.592,0.026,9.123-0.193,13.455-0.919c0.473-0.079,0.822-0.326,1.102-0.637c1.289,0.093,2.675-0.687,2.715-2.354
			C87.047,75.596,85.46,56.863,74.855,43.025z"/>
		<path d="M140.683,68.427c-12.234-0.564-27.683,1.199-38.47,7.469c-0.698,0.406-0.768,1.209-0.467,1.808
			c-5.535,12.933,7.087,23.47,22.425,26.943c-0.466,1.787-0.215,3.979-0.291,5.595c-0.209,4.429,0.03,9.219,1.852,13.322
			c3.709,8.352,11.908,6.092,19.282,4.73c1.091-0.201,1.843-1.381,1.849-2.427c0.021-4.707,0.046-9.414,0.039-14.122
			c-0.004-2.491,0.173-5.111,0.148-7.698c8.583-2.807,15.386-9.011,17.029-19.646c0.069-0.451,0.019-0.86-0.104-1.229
			c0.194-0.224,0.352-0.498,0.41-0.877C166.14,71.033,148.104,68.769,140.683,68.427z"/>
		<path d="M161.333,44.139c-7.608-6.377-18.305-12.044-28.522-10.951c-13.587,1.454-44.702,16.072-34.179,34.116
			c0.109,0.187,0.245,0.335,0.393,0.458c0.067,0.688,0.7,1.342,1.523,1.119c13.963-3.786,29.942-11.271,44.73-7.76
			c4.397,1.044,8.683,3.013,12.773,4.878c1.761,0.803,3.478,1.695,5.172,2.628c0.673,0.379,1.331,0.784,1.974,1.214
			c0.29,0.187,0.501,0.337,0.667,0.463c-0.024,0.986,0.73,1.927,1.877,1.99c2.062,0.112,2.972-1.106,2.997-2.554
			c0.817,0.1,1.712-0.226,2.147-0.977C177.918,60.074,167.328,49.165,161.333,44.139z"/>
		<path d="M183.553,130.486c-3.356-5.223-15.951-21.392-24.495-19.159c-0.874-0.67-2.129-0.81-3.009,0.176
			c-2.332,2.615-2.227,6.881-2.574,10.188c-0.56,5.334-0.686,10.795-1.759,16.064c-11.903-1.195-23.748,2.08-35.601,0.652
			c0.069-8.096,0.336-16.262-1.424-24.183c0.96-1.025,0.695-3.035-0.553-3.806c-7.473-4.607-18.241,8.033-22.205,12.755
			c-1.031,1.229-3.695,4.444-5.631,7.689c-5.083-8.275-14.536-14.853-23.763-14.402c-1.467-1.078-4.24-0.385-4.409,2.054
			c-0.263,3.776,0.083,7.613-0.471,11.366c-0.789,5.345-5.969,5.386-10.087,5.3c-5.248-0.109-10.593-1.166-15.792-0.375
			c-0.109-4.39-0.211-8.777-0.375-13.164c-0.059-1.582,0.349-4.753-1.262-5.852l-0.002-0.002c-0.041-0.027-0.068-0.069-0.112-0.095
			c-0.048-0.028-0.093-0.027-0.141-0.048c-0.096-0.049-0.194-0.083-0.302-0.104c-0.077-0.015-0.15-0.021-0.224-0.021
			c-0.028,0-0.056,0.007-0.084,0.008c-1.172-2.561-5.591-1.17-7.808-0.216c-6.328,2.722-12.717,9.518-16.765,14.914
			c-4.222,5.629-5.735,14.696-4,21.452c1.713,6.668,11.312,5.716,16.411,5.56c10.735-0.33,21.159-1.408,31.94-1.192
			c16.462,0.329,32.908,1.225,49.365,1.727c15.853,0.482,31.634,0.683,47.471,1.645c7.742,0.472,15.485,0.764,23.24,0.536
			c5.145-0.15,11.948,0.197,16.566-2.534c0.951-0.562,1.288-1.381,1.22-2.168C193.839,148.863,187.771,137.051,183.553,130.486z"/>
	</g>
</g>
</svg>